<?xml version="1.0" encoding="UTF-8"?>
<!DOCTYPE svg PUBLIC "-//W3C//DTD SVG 1.1//EN" "http://www.w3.org/Graphics/SVG/1.1/DTD/svg11.dtd">
<svg xmlns="http://www.w3.org/2000/svg" version="1.1" width="225px" height="225px" style="shape-rendering:geometricPrecision; text-rendering:geometricPrecision; image-rendering:optimizeQuality; fill-rule:evenodd; clip-rule:evenodd" xmlns:xlink="http://www.w3.org/1999/xlink">
<g><path style="opacity:1" fill="#010101" d="M -0.5,-0.5 C 74.5,-0.5 149.5,-0.5 224.5,-0.5C 224.5,74.5 224.5,149.5 224.5,224.5C 149.5,224.5 74.5,224.5 -0.5,224.5C -0.5,149.5 -0.5,74.5 -0.5,-0.5 Z"/></g>
<g><path style="opacity:1" fill="#f8fafb" d="M 98.5,10.5 C 133.674,7.34124 161.507,20.0079 182,48.5C 199.375,80.0872 198.375,111.087 179,141.5C 169.479,153.692 157.645,162.859 143.5,169C 155.069,166.942 163.236,171.109 168,181.5C 169.169,191.001 165.336,197.501 156.5,201C 126.167,201.667 95.8333,201.667 65.5,201C 55.1696,194.524 53.003,186.024 59,175.5C 61.4411,173.031 64.2744,171.198 67.5,170C 71.8333,169.667 76.1667,169.333 80.5,169C 51.1364,155.958 34.303,133.458 30,101.5C 27.9717,61.7062 44.8051,33.2062 80.5,16C 86.6118,14.1447 92.6118,12.3114 98.5,10.5 Z"/></g>
<g><path style="opacity:1" fill="#6992b9" d="M 104.5,19.5 C 106.346,19.2222 107.68,19.8888 108.5,21.5C 105.491,26.7613 104.157,26.0946 104.5,19.5 Z"/></g>
<g><path style="opacity:1" fill="#5886b2" d="M 116.5,19.5 C 118.256,20.5521 118.923,22.2188 118.5,24.5C 116.891,24.9059 115.557,24.9059 114.5,24.5C 115.174,22.8045 115.841,21.1379 116.5,19.5 Z"/></g>
<g><path style="opacity:1" fill="#5587b1" d="M 127.5,21.5 C 128.847,22.1712 130.014,22.1712 131,21.5C 131.624,23.4645 131.124,25.1311 129.5,26.5C 128.459,24.0087 127.626,24.0087 127,26.5C 126.616,24.8034 126.782,23.1368 127.5,21.5 Z"/></g>
<g><path style="opacity:1" fill="#6894ba" d="M 96.5,20.5 C 97.4959,20.4142 98.3292,20.7476 99,21.5C 99.6667,23.1667 99.6667,24.8333 99,26.5C 98.2588,25.3595 97.4255,25.3595 96.5,26.5C 95.3058,24.4844 95.3058,22.4844 96.5,20.5 Z"/></g>
<g><path style="opacity:1" fill="#759fc1" d="M 121.5,19.5 C 122.831,20.9879 124.164,21.6545 125.5,21.5C 125.023,22.931 124.357,24.2643 123.5,25.5C 120.291,25.1472 119.624,23.1472 121.5,19.5 Z"/></g>
<g><path style="opacity:1" fill="#6991b9" d="M 137.5,23.5 C 138.913,24.7658 140.246,25.4325 141.5,25.5C 140.27,29.7146 139.103,30.0479 138,26.5C 137.346,27.6956 136.846,27.6956 136.5,26.5C 137.127,25.5832 137.461,24.5832 137.5,23.5 Z"/></g>
<g><path style="opacity:1" fill="#7099be" d="M 85.5,23.5 C 87.7099,24.4551 88.0432,25.9551 86.5,28C 88.9316,29.0875 88.5983,29.5875 85.5,29.5C 84.7249,27.3881 84.7249,25.3881 85.5,23.5 Z"/></g>
<g><path style="opacity:1" fill="#3e79a9" d="M 91.5,21.5 C 91.7898,23.022 91.7898,24.522 91.5,26C 95.2259,27.0432 94.8926,27.5432 90.5,27.5C 90.5792,26.0695 90.2458,24.7362 89.5,23.5C 90.2427,22.8182 90.9094,22.1515 91.5,21.5 Z"/></g>
<g><path style="opacity:1" fill="#8bacca" d="M 133.5,22.5 C 134.376,22.3691 135.043,22.7025 135.5,23.5C 132.918,29.9342 132.251,29.6009 133.5,22.5 Z"/></g>
<g><path style="opacity:1" fill="#628eb7" d="M 143.5,26.5 C 144.995,26.4148 145.995,27.0815 146.5,28.5C 145.754,29.7362 145.421,31.0695 145.5,32.5C 140.917,31.985 140.251,29.985 143.5,26.5 Z"/></g>
<g><path style="opacity:1" fill="#5f8db5" d="M 79.5,26.5 C 80.5,26.5 81.5,26.5 82.5,26.5C 82.4802,28.143 83.1468,29.4763 84.5,30.5C 83.7261,31.7112 82.8928,31.7112 82,30.5C 81.6667,31.1667 81.3333,31.8333 81,32.5C 79.4382,30.4961 78.9382,28.4961 79.5,26.5 Z"/></g>
<g><path style="opacity:1" fill="#22ead4" d="M 142.5,40.5 C 141.507,42.3226 140.007,43.6559 138,44.5C 126.224,39.4521 114.057,37.9521 101.5,40C 100.692,40.3076 100.025,40.8076 99.5,41.5C 104.082,49.6661 108.915,57.6661 114,65.5C 115.187,67.0444 115.52,68.7111 115,70.5C 113.333,72.1667 111.667,73.8333 110,75.5C 106.376,70.4198 102.876,65.2532 99.5,60C 96.1062,60.6758 93.1062,62.3424 90.5,65C 94.032,70.3685 97.3653,75.8685 100.5,81.5C 97.4702,86.7601 95.8035,92.4268 95.5,98.5C 88.5663,103.217 81.3997,107.55 74,111.5C 73.228,111.355 72.5613,111.022 72,110.5C 66.7069,96.4403 67.5403,82.7736 74.5,69.5C 75.1667,68.1667 75.8333,68.1667 76.5,69.5C 79.1667,73.8333 81.8333,78.1667 84.5,82.5C 82.5,84.3271 80.3333,85.9938 78,87.5C 77.1747,91.2113 77.3414,94.878 78.5,98.5C 81.8333,96.5 85.1667,94.5 88.5,92.5C 91.1087,87.3491 90.942,82.3491 88,77.5C 83.5,70.5 79,63.5 74.5,56.5C 62.2776,69.3907 57.7776,84.7241 61,102.5C 64.3371,115.99 71.1705,127.324 81.5,136.5C 81.0234,138.597 80.3567,140.597 79.5,142.5C 78.2789,143.465 76.9456,143.298 75.5,142C 52.2735,122.564 45.4402,98.3976 55,69.5C 59.7864,58.5531 66.9531,49.5531 76.5,42.5C 79.3615,46.1954 82.0282,50.0287 84.5,54C 87.7542,53.3034 90.7542,51.8034 93.5,49.5C 91.1667,45.5 88.8333,41.5 86.5,37.5C 89.4323,35.3456 92.7657,33.8456 96.5,33C 110.151,30.2998 123.484,31.2998 136.5,36C 139.177,36.8136 141.177,38.3136 142.5,40.5 Z"/></g>
<g><path style="opacity:1" fill="#417ead" d="M 74.5,29.5 C 78.4451,31.1263 78.9451,33.1263 76,35.5C 74.872,33.6547 74.372,31.6547 74.5,29.5 Z"/></g>
<g><path style="opacity:1" fill="#477ead" d="M 152.5,31.5 C 153.709,33.4346 153.542,35.4346 152,37.5C 151.5,36.3333 150.667,35.5 149.5,35C 150.71,33.9609 151.71,32.7942 152.5,31.5 Z"/></g>
<g><path style="opacity:1" fill="#6592b9" d="M 69.5,32.5 C 71.7583,32.7751 72.0916,33.7751 70.5,35.5C 71.6034,35.9976 72.6034,36.3309 73.5,36.5C 73.1667,37.5 72.5,38.1667 71.5,38.5C 69.0465,36.9583 68.3799,34.9583 69.5,32.5 Z"/></g>
<g><path style="opacity:1" fill="#608eb6" d="M 156.5,34.5 C 160.413,36.3699 160.413,38.3699 156.5,40.5C 156.017,38.6869 156.017,36.6869 156.5,34.5 Z"/></g>
<g><path style="opacity:1" fill="#5b8cb5" d="M 62.5,38.5 C 66.9713,39.6545 67.8047,41.6545 65,44.5C 62.2721,43.033 61.4387,41.033 62.5,38.5 Z"/></g>
<g><path style="opacity:1" fill="#4679aa" d="M 160.5,39.5 C 165.645,40.4824 165.812,42.149 161,44.5C 159.941,44.3699 159.108,43.8699 158.5,43C 159.305,41.8873 159.972,40.7206 160.5,39.5 Z"/></g>
<g><path style="opacity:1" fill="#21ead4" d="M 145.5,41.5 C 167.077,56.0026 176.243,76.336 173,102.5C 169.765,118.308 161.932,131.308 149.5,141.5C 146.75,137.668 144.25,133.668 142,129.5C 139.041,131.389 136.208,133.389 133.5,135.5C 135.708,139.417 138.041,143.25 140.5,147C 121.058,155.799 101.725,155.632 82.5,146.5C 83.7341,143.593 85.7341,141.259 88.5,139.5C 100.994,145.677 113.994,147.01 127.5,143.5C 121.833,134.167 116.167,124.833 110.5,115.5C 111.781,112.553 113.781,110.219 116.5,108.5C 120.416,113.996 124.082,119.663 127.5,125.5C 130.5,123.667 133.5,121.833 136.5,120C 132.321,113.978 128.655,107.644 125.5,101C 126.814,97.6169 127.647,94.1169 128,90.5C 136.584,84.7896 145.418,79.4563 154.5,74.5C 160.576,89.1057 159.409,103.106 151,116.5C 147.915,112 145.082,107.333 142.5,102.5C 144.091,100.367 146.091,98.7007 148.5,97.5C 149.657,94.2156 149.824,90.8823 149,87.5C 144.416,90.2083 139.916,93.0416 135.5,96C 134.941,96.7247 134.608,97.5581 134.5,98.5C 139.929,108.439 145.596,118.272 151.5,128C 152.167,128.667 152.833,128.667 153.5,128C 166.544,111.236 169.711,92.7362 163,72.5C 159.004,62.3415 152.504,54.1748 143.5,48C 144.397,45.9129 145.064,43.7463 145.5,41.5 Z"/></g>
<g><path style="opacity:1" fill="#dce8f0" d="M 161.5,40.5 C 162.713,41.4971 162.546,42.4971 161,43.5C 160.53,42.4232 160.697,41.4232 161.5,40.5 Z"/></g>
<g><path style="opacity:1" fill="#628cb6" d="M 57.5,43.5 C 60.7572,43.174 62.2572,44.5073 62,47.5C 58.9784,48.3311 57.4784,46.9978 57.5,43.5 Z"/></g>
<g><path style="opacity:1" fill="#f9fefd" d="M 142.5,40.5 C 143.791,40.2627 144.791,40.596 145.5,41.5C 145.064,43.7463 144.397,45.9129 143.5,48C 152.504,54.1748 159.004,62.3415 163,72.5C 169.711,92.7362 166.544,111.236 153.5,128C 152.833,128.667 152.167,128.667 151.5,128C 145.596,118.272 139.929,108.439 134.5,98.5C 134.608,97.5581 134.941,96.7247 135.5,96C 139.916,93.0416 144.416,90.2083 149,87.5C 149.824,90.8823 149.657,94.2156 148.5,97.5C 146.091,98.7007 144.091,100.367 142.5,102.5C 145.082,107.333 147.915,112 151,116.5C 159.409,103.106 160.576,89.1057 154.5,74.5C 145.418,79.4563 136.584,84.7896 128,90.5C 127.647,94.1169 126.814,97.6169 125.5,101C 128.655,107.644 132.321,113.978 136.5,120C 133.5,121.833 130.5,123.667 127.5,125.5C 124.082,119.663 120.416,113.996 116.5,108.5C 113.781,110.219 111.781,112.553 110.5,115.5C 116.167,124.833 121.833,134.167 127.5,143.5C 113.994,147.01 100.994,145.677 88.5,139.5C 85.7341,141.259 83.7341,143.593 82.5,146.5C 81.5266,146.013 80.5266,145.513 79.5,145C 79.7284,144.601 80.0618,144.435 80.5,144.5C 94.134,130.03 107.634,115.363 121,100.5C 129.52,81.4875 136.853,62.1542 143,42.5C 128.928,56.5683 115.595,71.2349 103,86.5C 95.3754,105.227 87.8754,123.893 80.5,142.5C 80.1667,142.5 79.8333,142.5 79.5,142.5C 80.3567,140.597 81.0234,138.597 81.5,136.5C 71.1705,127.324 64.3371,115.99 61,102.5C 57.7776,84.7241 62.2776,69.3907 74.5,56.5C 79,63.5 83.5,70.5 88,77.5C 90.942,82.3491 91.1087,87.3491 88.5,92.5C 85.1667,94.5 81.8333,96.5 78.5,98.5C 77.3414,94.878 77.1747,91.2113 78,87.5C 80.3333,85.9938 82.5,84.3271 84.5,82.5C 81.8333,78.1667 79.1667,73.8333 76.5,69.5C 75.8333,68.1667 75.1667,68.1667 74.5,69.5C 67.5403,82.7736 66.7069,96.4403 72,110.5C 72.5613,111.022 73.228,111.355 74,111.5C 81.3997,107.55 88.5663,103.217 95.5,98.5C 95.8035,92.4268 97.4702,86.7601 100.5,81.5C 97.3653,75.8685 94.032,70.3685 90.5,65C 93.1062,62.3424 96.1062,60.6758 99.5,60C 102.876,65.2532 106.376,70.4198 110,75.5C 111.667,73.8333 113.333,72.1667 115,70.5C 115.52,68.7111 115.187,67.0444 114,65.5C 108.915,57.6661 104.082,49.6661 99.5,41.5C 100.025,40.8076 100.692,40.3076 101.5,40C 114.057,37.9521 126.224,39.4521 138,44.5C 140.007,43.6559 141.507,42.3226 142.5,40.5 Z"/></g>
<g><path style="opacity:1" fill="#25ead4" d="M 109.5,48.5 C 113.311,47.3547 117.311,47.1881 121.5,48C 124.824,48.9428 128.157,49.7761 131.5,50.5C 130.909,53.6136 129.242,56.1136 126.5,58C 123.705,59.2997 121.039,60.7997 118.5,62.5C 115.476,57.7686 112.476,53.1019 109.5,48.5 Z"/></g>
<g><path style="opacity:1" fill="#6996bb" d="M 166.5,46.5 C 168.346,46.2222 169.68,46.8888 170.5,48.5C 169.059,48.6369 167.726,49.6369 166.5,51.5C 165.5,51.1667 164.833,50.5 164.5,49.5C 165.612,48.7348 166.279,47.7348 166.5,46.5 Z"/></g>
<g><path style="opacity:1" fill="#6893b9" d="M 54.5,47.5 C 55.2216,47.9175 55.7216,48.5842 56,49.5C 56.3333,49.1667 56.6667,48.8333 57,48.5C 58.6712,53.5258 57.5046,53.8591 53.5,49.5C 53.8627,48.8165 54.1961,48.1499 54.5,47.5 Z"/></g>
<g><path style="opacity:1" fill="#4279a9" d="M 171.5,50.5 C 174.822,52.5161 174.988,53.1828 172,52.5C 171,53.5 170,54.5 169,55.5C 168.5,55 168,54.5 167.5,54C 169.093,53.0513 170.426,51.8846 171.5,50.5 Z"/></g>
<g><path style="opacity:1" fill="#4e84af" d="M 49.5,54.5 C 50.6779,55.6619 51.8446,56.6619 53,57.5C 54.2811,56.3533 54.6144,56.6866 54,58.5C 52.3196,59.6034 50.8196,59.2701 49.5,57.5C 48.4376,56.5754 48.4376,55.5754 49.5,54.5 Z"/></g>
<g><path style="opacity:1" fill="#4c82af" d="M 174.5,55.5 C 176.104,56.287 176.771,57.6203 176.5,59.5C 175.178,59.33 174.011,59.6634 173,60.5C 172.5,59.3333 171.667,58.5 170.5,58C 172.066,57.3918 173.4,56.5585 174.5,55.5 Z"/></g>
<g><path style="opacity:1" fill="#26ebd5" d="M 140.5,56.5 C 143.812,59.1456 146.812,62.1456 149.5,65.5C 144.588,69.2072 139.422,72.5405 134,75.5C 135.545,69.0493 137.712,62.716 140.5,56.5 Z"/></g>
<g><path style="opacity:1" fill="#3f75a6" d="M 46.5,59.5 C 48.433,59.7286 50.0997,60.5619 51.5,62C 49.6992,62.3173 49.3659,62.984 50.5,64C 46.717,64.3283 45.3837,62.8283 46.5,59.5 Z"/></g>
<g><path style="opacity:1" fill="#487fac" d="M 177.5,60.5 C 178.692,61.5659 178.359,62.3992 176.5,63C 177.5,63.3333 178.5,63.6667 179.5,64C 172.539,65.2885 171.872,64.1218 177.5,60.5 Z"/></g>
<g><path style="opacity:1" fill="#5689b2" d="M 44.5,64.5 C 45.9683,65.8691 47.635,67.0357 49.5,68C 47.555,67.8718 45.7216,68.0385 44,68.5C 43.805,67.1807 43.9717,65.8474 44.5,64.5 Z"/></g>
<g><path style="opacity:1" fill="#4b7ead" d="M 177.5,66.5 C 181.315,66.7117 181.315,67.3784 177.5,68.5C 176.833,68.3333 176.167,68.1667 175.5,68C 176.416,67.7216 177.082,67.2216 177.5,66.5 Z"/></g>
<g><path style="opacity:1" fill="#5f8eb7" d="M 42.5,70.5 C 44.1252,69.6749 45.7918,70.0082 47.5,71.5C 46.624,72.2508 45.624,72.7508 44.5,73C 45.1667,73.3333 45.8333,73.6667 46.5,74C 45.1667,74.6667 43.8333,74.6667 42.5,74C 42.4021,72.7153 42.4021,71.5486 42.5,70.5 Z"/></g>
<g><path style="opacity:1" fill="#3e75a7" d="M 177.5,70.5 C 179.167,70.5 180.833,70.5 182.5,70.5C 182.719,71.675 182.386,72.675 181.5,73.5C 181.511,72.5585 181.011,71.8919 180,71.5C 178.902,72.3839 178.402,73.3839 178.5,74.5C 176.358,73.5629 176.024,72.2296 177.5,70.5 Z"/></g>
<g><path style="opacity:1" fill="#2870a3" d="M 178.5,76.5 C 180.199,76.3398 181.866,76.5065 183.5,77C 182.24,78.113 181.073,78.2797 180,77.5C 178.957,81.2259 178.457,80.8926 178.5,76.5 Z"/></g>
<g><path style="opacity:1" fill="#6795ba" d="M 40.5,75.5 C 42.5816,75.6243 44.0816,76.6243 45,78.5C 46.0875,76.0684 46.5875,76.4017 46.5,79.5C 44.5,79.5 42.5,79.5 40.5,79.5C 40.5,78.1667 40.5,76.8333 40.5,75.5 Z"/></g>
<g><path style="opacity:1" fill="#5181af" d="M 40.5,81.5 C 40.9736,82.9499 42.307,84.1165 44.5,85C 40.5765,86.2376 39.2432,85.0709 40.5,81.5 Z"/></g>
<g><path style="opacity:1" fill="#21e8d3" d="M 80.5,144.5 C 80.5,143.833 80.5,143.167 80.5,142.5C 87.8754,123.893 95.3754,105.227 103,86.5C 115.595,71.2349 128.928,56.5683 143,42.5C 136.853,62.1542 129.52,81.4875 121,100.5C 107.634,115.363 94.134,130.03 80.5,144.5 Z"/></g>
<g><path style="opacity:1" fill="#04659b" d="M 133.5,56.5 C 133.409,58.6977 134.075,59.0311 135.5,57.5C 131.563,68.9755 127.23,80.3089 122.5,91.5C 119.891,85.359 115.224,82.5256 108.5,83C 116.7,73.9689 125.033,65.1356 133.5,56.5 Z"/></g>
<g><path style="opacity:1" fill="#0f89aa" d="M 124.5,71.5 C 126.112,74.6925 124.946,77.3591 121,79.5C 121.38,76.5791 122.547,73.9124 124.5,71.5 Z"/></g>
<g><path style="opacity:1" fill="#089db2" d="M 135.5,57.5 C 134.075,59.0311 133.409,58.6977 133.5,56.5C 133.685,54.8042 134.519,53.4709 136,52.5C 137.77,54.315 137.603,55.9817 135.5,57.5 Z"/></g>
<g><path style="opacity:1" fill="#84a6c6" d="M 179.5,81.5 C 181.167,81.5 182.833,81.5 184.5,81.5C 184.649,82.552 184.483,83.552 184,84.5C 183.667,84.1667 183.333,83.8333 183,83.5C 180.448,86.1941 179.281,85.5274 179.5,81.5 Z"/></g>
<g><path style="opacity:1" fill="#06619a" d="M 108.5,86.5 C 114.651,84.8436 118.317,87.0102 119.5,93C 118.685,99.0395 115.352,101.04 109.5,99C 106.783,97.7411 105.45,95.5744 105.5,92.5C 105.467,89.8984 106.467,87.8984 108.5,86.5 Z"/></g>
<g><path style="opacity:1" fill="#e3ecf3" d="M 111.5,89.5 C 114.966,90.109 115.966,91.9423 114.5,95C 109.289,95.5464 108.289,93.713 111.5,89.5 Z"/></g>
<g><path style="opacity:1" fill="#2b689f" d="M 39.5,93.5 C 40.8333,93.5 42.1667,93.5 43.5,93.5C 43.5,94.5 43.5,95.5 43.5,96.5C 42.1667,96.5 40.8333,96.5 39.5,96.5C 39.5,95.5 39.5,94.5 39.5,93.5 Z"/></g>
<g><path style="opacity:1" fill="#005594" d="M 181.5,93.5 C 182.5,93.5 183.5,93.5 184.5,93.5C 184.5,94.5 184.5,95.5 184.5,96.5C 183.5,96.5 182.5,96.5 181.5,96.5C 181.5,95.5 181.5,94.5 181.5,93.5 Z"/></g>
<g><path style="opacity:1" fill="#5b8bb4" d="M 179.5,107.5 C 181.435,106.291 183.435,106.458 185.5,108C 183.455,108.49 181.455,108.323 179.5,107.5 Z"/></g>
<g><path style="opacity:1" fill="#3070a3" d="M 43.5,107.5 C 45.3786,107.393 45.7119,107.893 44.5,109C 43.1667,109.667 41.8333,109.667 40.5,109C 41.7375,108.768 42.7375,108.268 43.5,107.5 Z"/></g>
<g><path style="opacity:1" fill="#5f90b7" d="M 178.5,110.5 C 180.604,110.201 182.604,110.534 184.5,111.5C 183.975,112.192 183.308,112.692 182.5,113C 183.451,113.718 183.617,114.551 183,115.5C 180.8,114.349 179.3,112.682 178.5,110.5 Z"/></g>
<g><path style="opacity:1" fill="#5d8cb5" d="M 42.5,111.5 C 48.994,113.012 48.994,114.678 42.5,116.5C 41.2888,115.726 41.2888,114.893 42.5,114C 41.8333,113.667 41.1667,113.333 40.5,113C 41.4158,112.722 42.0825,112.222 42.5,111.5 Z"/></g>
<g><path style="opacity:1" fill="#30ebd6" d="M 88.5,113.5 C 89.3764,113.369 90.0431,113.702 90.5,114.5C 88.6667,118.833 86.8333,123.167 85,127.5C 82.6496,125.317 80.483,122.984 78.5,120.5C 81.8998,118.144 85.2331,115.811 88.5,113.5 Z"/></g>
<g><path style="opacity:1" fill="#5788b2" d="M 176.5,116.5 C 178.663,117.362 180.663,117.696 182.5,117.5C 182.167,118.5 181.5,119.167 180.5,119.5C 178.517,119.185 177.184,118.185 176.5,116.5 Z"/></g>
<g><path style="opacity:1" fill="#5e8bb5" d="M 45.5,117.5 C 46.5,117.5 47.5,117.5 48.5,117.5C 48.5,118.833 48.5,120.167 48.5,121.5C 46.8333,121.5 45.1667,121.5 43.5,121.5C 43.5271,119.801 44.1938,118.467 45.5,117.5 Z"/></g>
<g><path style="opacity:1" fill="#5386b1" d="M 175.5,121.5 C 177.263,120.666 178.93,121.166 180.5,123C 178.718,123.122 177.052,122.622 175.5,121.5 Z"/></g>
<g><path style="opacity:1" fill="#27ebd5" d="M 106.5,122.5 C 108.017,122.511 109.184,123.177 110,124.5C 112.374,128.75 114.874,132.916 117.5,137C 109.2,138.505 101.533,137.005 94.5,132.5C 97.7926,128.205 101.793,124.872 106.5,122.5 Z"/></g>
<g><path style="opacity:1" fill="#4279a9" d="M 49.5,122.5 C 50.7733,123.077 50.7733,123.743 49.5,124.5C 48.549,125.326 47.549,125.492 46.5,125C 47.5707,124.148 48.5707,123.315 49.5,122.5 Z"/></g>
<g><path style="opacity:1" fill="#4e82af" d="M 173.5,123.5 C 175.305,124.237 176.971,125.237 178.5,126.5C 177.738,126.911 176.738,127.077 175.5,127C 176.167,127.667 176.833,128.333 177.5,129C 175.721,128.956 174.055,128.289 172.5,127C 173.167,126.667 173.833,126.333 174.5,126C 173.748,125.329 173.414,124.496 173.5,123.5 Z"/></g>
<g><path style="opacity:1" fill="#6492b8" d="M 50.5,126.5 C 51.675,126.281 52.675,126.614 53.5,127.5C 51.6661,131.813 49.6661,132.146 47.5,128.5C 48.6016,127.824 49.6016,127.158 50.5,126.5 Z"/></g>
<g><path style="opacity:1" fill="#628eb7" d="M 170.5,129.5 C 173.764,129.726 174.764,131.226 173.5,134C 171.721,133.956 170.055,133.289 168.5,132C 169.381,131.292 170.047,130.458 170.5,129.5 Z"/></g>
<g><path style="opacity:1" fill="#4780ae" d="M 53.5,131.5 C 58.7271,133.121 58.7271,134.788 53.5,136.5C 53.2624,134.93 53.2624,133.263 53.5,131.5 Z"/></g>
<g><path style="opacity:1" fill="#3f76a8" d="M 165.5,137.5 C 167.446,138.254 168.279,139.588 168,141.5C 166.581,140.54 165.081,139.707 163.5,139C 164.416,138.722 165.082,138.222 165.5,137.5 Z"/></g>
<g><path style="opacity:1" fill="#4f81af" d="M 60.5,138.5 C 61.0431,138.56 61.3764,138.893 61.5,139.5C 60.2402,140.382 59.0736,141.382 58,142.5C 57.3333,141.833 57.3333,141.167 58,140.5C 58.9947,139.934 59.828,139.267 60.5,138.5 Z"/></g>
<g><path style="opacity:1" fill="#719abe" d="M 160.5,140.5 C 162.269,141.421 163.935,142.588 165.5,144C 163.948,147.151 162.115,147.318 160,144.5C 159.421,143.072 159.588,141.738 160.5,140.5 Z"/></g>
<g><path style="opacity:1" fill="#81a4c5" d="M 62.5,141.5 C 63.9221,141.75 64.9221,142.583 65.5,144C 64.3816,145.074 63.3816,146.24 62.5,147.5C 61.646,146.478 60.646,145.645 59.5,145C 60.7101,143.961 61.7101,142.794 62.5,141.5 Z"/></g>
<g><path style="opacity:1" fill="#6190b7" d="M 67.5,145.5 C 68.7562,145.461 69.7562,145.961 70.5,147C 69.0267,147.71 68.3601,148.876 68.5,150.5C 67.325,150.719 66.325,150.386 65.5,149.5C 66.1799,148.14 66.8466,146.807 67.5,145.5 Z"/></g>
<g><path style="opacity:1" fill="#4a7dac" d="M 71.5,149.5 C 72.4971,148.287 73.4971,148.454 74.5,150C 73.2125,151.41 72.0458,152.91 71,154.5C 70.7351,152.837 71.2351,151.337 72.5,150C 72.2716,149.601 71.9382,149.435 71.5,149.5 Z"/></g>
<g><path style="opacity:1" fill="#739abe" d="M 155.5,145.5 C 158.524,145.364 160.024,146.698 160,149.5C 156.331,151.009 154.831,149.676 155.5,145.5 Z"/></g>
<g><path style="opacity:1" fill="#5c89b4" d="M 150.5,149.5 C 151.794,150.29 152.961,151.29 154,152.5C 155.281,151.353 155.614,151.687 155,153.5C 154.586,153.957 154.086,154.291 153.5,154.5C 152.048,153.06 151.048,151.394 150.5,149.5 Z"/></g>
<g><path style="opacity:1" fill="#4c82ae" d="M 79.5,153.5 C 80.675,153.281 81.675,153.614 82.5,154.5C 78.881,160.157 77.881,159.823 79.5,153.5 Z"/></g>
<g><path style="opacity:1" fill="#6a95bb" d="M 146.5,151.5 C 148.701,151.858 150.035,153.192 150.5,155.5C 148.258,158.074 146.591,157.574 145.5,154C 145.743,153.098 146.077,152.265 146.5,151.5 Z"/></g>
<g><path style="opacity:1" fill="#84a6c6" d="M 76.5,151.5 C 77.3251,153.125 76.9918,154.792 75.5,156.5C 74.7992,154.808 75.1325,153.142 76.5,151.5 Z"/></g>
<g><path style="opacity:1" fill="#5285b1" d="M 142.5,154.5 C 143.525,155.374 144.192,156.541 144.5,158C 143.527,158.349 142.694,159.182 142,160.5C 140.916,159.335 140.083,158.002 139.5,156.5C 140.274,155.289 141.107,155.289 142,156.5C 142.464,155.906 142.631,155.239 142.5,154.5 Z"/></g>
<g><path style="opacity:1" fill="#4a7eac" d="M 89.5,157.5 C 90.675,157.281 91.675,157.614 92.5,158.5C 90.1013,163.975 89.1013,163.641 89.5,157.5 Z"/></g>
<g><path style="opacity:1" fill="#528bb5" d="M 84.5,155.5 C 84.6921,157.545 84.6921,159.545 84.5,161.5C 83.5,161.167 82.8333,160.5 82.5,159.5C 83.1799,158.14 83.8466,156.807 84.5,155.5 Z"/></g>
<g><path style="opacity:1" fill="#326ca1" d="M 136.5,157.5 C 139.481,160.342 139.148,161.509 135.5,161C 136.696,161.654 136.696,162.154 135.5,162.5C 135.167,162 134.833,161.5 134.5,161C 135.429,159.923 136.096,158.756 136.5,157.5 Z"/></g>
<g><path style="opacity:1" fill="#5a8eb7" d="M 94.5,159.5 C 97.5983,159.413 97.9316,159.913 95.5,161C 95.8333,162 96.1667,163 96.5,164C 95.552,164.483 94.552,164.649 93.5,164.5C 93.366,162.708 93.6993,161.042 94.5,159.5 Z"/></g>
<g><path style="opacity:1" fill="#3f77a9" d="M 109.5,160.5 C 112.718,160.651 113.051,161.484 110.5,163C 111.28,164.073 111.113,165.24 110,166.5C 109.505,164.527 109.338,162.527 109.5,160.5 Z"/></g>
<g><path style="opacity:1" fill="#4a81af" d="M 128.5,158.5 C 131.896,158.633 132.229,159.633 129.5,161.5C 132.597,162.194 132.931,163.194 130.5,164.5C 128.717,162.977 128.051,160.977 128.5,158.5 Z"/></g>
<g><path style="opacity:1" fill="#5f8fb7" d="M 123.5,159.5 C 124.239,159.369 124.906,159.536 125.5,160C 124.949,161.398 124.616,162.732 124.5,164C 125.167,164.333 125.833,164.667 126.5,165C 125.207,165.49 123.873,165.657 122.5,165.5C 122.325,163.379 122.659,161.379 123.5,159.5 Z"/></g>
<g><path style="opacity:1" fill="#7ca3c3" d="M 103.5,160.5 C 104.5,160.5 105.5,160.5 106.5,160.5C 106.949,162.977 106.283,164.977 104.5,166.5C 102.261,164.867 101.928,162.867 103.5,160.5 Z"/></g>
<g><path style="opacity:1" fill="#326ba2" d="M 117.5,160.5 C 118.552,160.351 119.552,160.517 120.5,161C 119.751,162.734 119.251,164.567 119,166.5C 118.495,164.482 117.995,162.482 117.5,160.5 Z"/></g>
<g><path style="opacity:1" fill="#5b8cb4" d="M 126.5,176.5 C 123.833,176.5 121.167,176.5 118.5,176.5C 118.17,182.868 118.504,189.202 119.5,195.5C 120.17,193.709 120.837,192.042 121.5,190.5C 121.5,192.5 121.5,194.5 121.5,196.5C 120.167,196.5 118.833,196.5 117.5,196.5C 117.5,189.5 117.5,182.5 117.5,175.5C 120.713,175.19 123.713,175.523 126.5,176.5 Z"/></g>
<g><path style="opacity:1" fill="#19619b" d="M 126.5,176.5 C 131.183,178.21 132.683,181.543 131,186.5C 128.85,189.963 125.684,191.296 121.5,190.5C 120.837,192.042 120.17,193.709 119.5,195.5C 118.504,189.202 118.17,182.868 118.5,176.5C 121.167,176.5 123.833,176.5 126.5,176.5 Z"/></g>
<g><path style="opacity:1" fill="#f7f9fb" d="M 121.5,179.5 C 126.983,178.807 128.983,180.974 127.5,186C 125.527,186.495 123.527,186.662 121.5,186.5C 121.5,184.167 121.5,181.833 121.5,179.5 Z"/></g>
<g><path style="opacity:1" fill="#26679e" d="M 98.5,176.5 C 100.833,176.5 103.167,176.5 105.5,176.5C 105.5,177.5 105.5,178.5 105.5,179.5C 98.1753,178.992 95.3419,182.326 97,189.5C 99.5463,192.186 102.713,193.186 106.5,192.5C 106.5,193.833 106.5,195.167 106.5,196.5C 96.7016,196.869 92.2016,192.202 93,182.5C 94.3597,179.977 96.193,177.977 98.5,176.5 Z"/></g>
<g><path style="opacity:1" fill="#1b629b" d="M 72.5,176.5 C 75.1667,176.5 77.8333,176.5 80.5,176.5C 80.5,177.5 80.5,178.5 80.5,179.5C 72.0056,179.475 69.339,183.308 72.5,191C 75.0135,192.252 77.6802,192.752 80.5,192.5C 80.5,193.833 80.5,195.167 80.5,196.5C 70.2449,196.681 66.0782,191.681 68,181.5C 69.3657,179.638 70.8657,177.972 72.5,176.5 Z"/></g>
<g><path style="opacity:1" fill="#24669e" d="M 147.5,175.5 C 150.5,175.5 153.5,175.5 156.5,175.5C 156.5,176.833 156.5,178.167 156.5,179.5C 153.482,179.335 150.482,179.502 147.5,180C 147.043,180.414 146.709,180.914 146.5,181.5C 149.429,183.14 152.595,184.473 156,185.5C 158.416,190.173 157.249,193.673 152.5,196C 149.518,196.498 146.518,196.665 143.5,196.5C 143.5,195.167 143.5,193.833 143.5,192.5C 146.518,192.665 149.518,192.498 152.5,192C 153.833,190.333 153.833,188.667 152.5,187C 145.532,188.033 142.699,185.2 144,178.5C 145.145,177.364 146.312,176.364 147.5,175.5 Z"/></g>
</svg>
